<?xml version="1.0" encoding="utf-8"?>
<!-- Generator: Adobe Illustrator 16.0.0, SVG Export Plug-In . SVG Version: 6.00 Build 0)  -->
<!DOCTYPE svg PUBLIC "-//W3C//DTD SVG 1.1//EN" "http://www.w3.org/Graphics/SVG/1.1/DTD/svg11.dtd">
<svg version="1.1" id="Capa_1" xmlns="http://www.w3.org/2000/svg" xmlns:xlink="http://www.w3.org/1999/xlink" x="0px" y="0px"
	 width="363.025px" height="363.023px" viewBox="0 0 363.025 363.023" enable-background="new 0 0 363.025 363.023"
	 xml:space="preserve">
<g>
	<g>
		<path fill="#FFFFFF" stroke="#FFFFFF" stroke-miterlimit="10" d="M181.512,0C81.422,0,0,81.424,0,181.512
			s81.422,181.513,181.512,181.513c100.089,0,181.515-81.424,181.515-181.513C363.025,81.424,281.601,0,181.512,0z M181.512,351.314
			c-93.626,0-169.802-76.176-169.802-169.803S87.886,11.71,181.512,11.71c93.628,0,169.803,76.176,169.803,169.803
			C351.314,275.14,275.14,351.314,181.512,351.314z"/>
		<polygon fill="#FFFFFF" stroke="#FFFFFF" stroke-miterlimit="10" points="187.368,111.25 175.658,111.25 175.658,175.657 
			111.25,175.657 111.25,187.368 175.658,187.368 175.658,251.775 187.368,251.775 187.368,187.368 251.776,187.368 
			251.776,175.657 187.368,175.657 		"/>
	</g>
</g>
</svg>
