<?xml version="1.0" encoding="utf-8"?>
<!-- Generator: Adobe Illustrator 16.0.0, SVG Export Plug-In . SVG Version: 6.00 Build 0)  -->
<!DOCTYPE svg PUBLIC "-//W3C//DTD SVG 1.1//EN" "http://www.w3.org/Graphics/SVG/1.1/DTD/svg11.dtd">
<svg version="1.1" id="Capa_1" xmlns="http://www.w3.org/2000/svg" xmlns:xlink="http://www.w3.org/1999/xlink" x="0px" y="0px"
	 width="612px" height="792px" viewBox="0 0 612 792" enable-background="new 0 0 612 792" xml:space="preserve">
<g>
	<g>
		<circle fill="#FFFFFF" cx="316.289" cy="124.522" r="34.522"/>
		<path fill="#FFFFFF" d="M186.387,135.982l84.134,86.412l-0.143,238.664c0,10.89,8.826,19.717,19.716,19.717
			c10.891,0,19.646-8.826,19.646-19.717l-0.071-159.441h8.897v159.655l0.143,0.142c0.142,10.748,8.826,19.361,19.503,19.361
			c10.748,0,19.574-8.755,19.574-19.646l-0.142-238.38l84.561-86.767c0-0.072,0-0.072,0.071-0.142
			c5.695-5.695,5.695-14.877,0-20.571c-5.694-5.623-14.876-5.623-20.57,0c0,0-0.072,0.142-0.143,0.142l-54.382,54.88H261.339
			l-54.452-54.88l-0.072-0.071c-5.694-5.695-14.947-5.695-20.642,0c-5.694,5.694-5.694,14.947,0,20.571
			C186.315,135.91,186.315,135.91,186.387,135.982z"/>
		<circle fill="#FFFFFF" cx="133.571" cy="206.948" r="34.451"/>
		<path fill="#FFFFFF" d="M166.456,252.645H97.341C47.872,253.499,49.58,289.8,49.58,289.8v84.775h0.072
			c0,0.214-0.072,0.428-0.072,0.712c0,7.972,6.549,14.521,14.663,14.521c7.972,0,14.449-6.62,14.449-14.521c0-0.284,0-0.427,0-0.712
			l0,0v-78.439h9.11l-0.071,246.992c0,10.891,8.754,19.717,19.646,19.717c10.819,0,19.646-8.755,19.646-19.717l-0.142-159.299h8.826
			v159.513l0.142,0.143c0.142,10.677,8.826,19.36,19.574,19.36c10.748,0,19.574-8.755,19.574-19.574l-0.071-247.49h9.466v78.795l0,0
			c0,0.072,0,0.072,0,0.143c0,8.043,6.477,14.521,14.591,14.521c7.972,0,14.521-6.406,14.521-14.521c0-0.072,0-0.072,0-0.143V289.8
			C210.303,252.004,166.456,252.645,166.456,252.645z"/>
		<circle fill="#FFFFFF" cx="482.564" cy="228.016" r="34.451"/>
		<path fill="#FFFFFF" d="M515.449,273.643h-69.115c-49.47,0.925-47.762,37.226-47.762,37.226v84.775l0,0c0,0.285,0,0.428,0,0.641
			c0,8.044,6.478,14.521,14.592,14.521c8.043,0,14.521-6.477,14.521-14.521c0-0.214-0.071-0.428-0.071-0.641h0.071v-78.369h9.11
			l-0.142,246.993c0,10.819,8.826,19.717,19.646,19.717s19.646-8.826,19.646-19.717v-159.37h8.755V564.41l0.142,0.143
			c0.143,10.677,8.826,19.36,19.574,19.36s19.503-8.755,19.503-19.574l-0.071-247.49h9.467v78.795l0,0c0,0.072,0,0.072,0,0.142
			c0,7.972,6.477,14.521,14.521,14.521s14.592-6.549,14.592-14.521c0-0.071,0-0.071,0-0.142V310.87
			C559.296,273.074,515.449,273.643,515.449,273.643z"/>
		<path fill="#FFFFFF" d="M244.611,702H376.15V488.035H244.611V702z M308.316,575.158h7.403v64.062h-8.328v-55.947h-0.214
			l-11.175,5.979l-1.638-6.62L308.316,575.158z"/>
		<path fill="#FFFFFF" d="M414.802,702h131.539V595.018H414.802V702z M465.552,674.026c2.492,1.638,8.187,4.058,14.235,4.058
			c11.176,0,14.592-7.119,14.521-12.457c-0.072-8.969-8.187-12.812-16.515-12.812h-4.84v-6.478h4.84
			c6.265,0,14.236-3.203,14.236-10.819c0-5.125-3.203-9.68-11.246-9.68c-5.053,0-10.035,2.207-12.74,4.271l-2.278-6.264
			c3.346-2.492,9.822-4.983,16.799-4.983c12.669,0,18.293,7.475,18.293,15.304c0,6.548-3.985,12.243-11.887,15.09v0.214
			c7.9,1.565,14.307,7.474,14.307,16.514c0,10.179-7.972,19.219-23.347,19.219c-7.188,0-13.524-2.278-16.656-4.342L465.552,674.026z
			"/>
		<path fill="#FFFFFF" d="M65.738,702h131.54V570.461H65.738V702z M110.937,666.838l6.833-6.62
			c16.371-15.589,23.774-23.845,23.845-33.455c0-6.477-3.203-12.527-12.741-12.527c-5.837,0-10.677,2.989-13.595,5.409l-2.776-6.05
			c4.413-3.773,10.748-6.549,18.15-6.549c13.809,0,19.646,9.538,19.646,18.649c0,11.887-8.542,21.425-22.065,34.38l-5.125,4.697
			v0.214h28.756v7.189h-40.857v-5.339L110.937,666.838L110.937,666.838z"/>
	</g>
</g>
</svg>
