<?xml version="1.0" encoding="utf-8"?>
<!-- Generator: Adobe Illustrator 16.0.0, SVG Export Plug-In . SVG Version: 6.00 Build 0)  -->
<!DOCTYPE svg PUBLIC "-//W3C//DTD SVG 1.1//EN" "http://www.w3.org/Graphics/SVG/1.1/DTD/svg11.dtd">
<svg version="1.1" id="Capa_1" xmlns="http://www.w3.org/2000/svg" xmlns:xlink="http://www.w3.org/1999/xlink" x="0px" y="0px"
	 width="612px" height="792px" viewBox="0 0 612 792" enable-background="new 0 0 612 792" xml:space="preserve">
<g>
	<g>
		<path fill="#FFFFFF" d="M239.354,270.413V122.436c0-10.167-1.412-21.341-5.567-27.353
			c-100.615-28.159-112.193,69.753-112.193,69.753c-3.228,12.305-4.841,35.179-5.648,58.779c5.244-1.25,10.449-2.017,15.451-2.017
			l0,0c14.604,0,27.433,5.769,36.147,16.258c10.933,13.192,14.685,32.113,11.659,58.779h26.142
			C221.643,296.636,235.36,285.461,239.354,270.413z"/>
		<path fill="#FFFFFF" d="M547.734,482.374h-16.46c-32.84,0-59.627-21.463-59.627-47.887v-26.224
			c-10.61,7.746-24.609,12.547-40.061,12.547h-16.46c-32.879,0-59.667-21.422-59.667-47.846v-10.973
			c-10.61,7.746-24.608,12.506-40.061,12.506H298.94c-32.436,0-58.86-20.938-59.546-46.878
			c-9.198,7.786-21.059,12.546-34.009,12.546H176.5c-3.833,16.823,0.363,62.249-20.615,79.274
			c-11.901,11.054-27.271-8.311-27.271-8.311C162.178,374.538,160,316,160,316c8.432-45.386-21.624-69.915-38.891-69.915
			c-4.922,0-10.368,1.21-15.976,3.147c0,0-33.162,17.105-46.394,29.047c-12.426,8.593-36.188,36.874-38.648,39.778l-0.605-0.847
			c-32.718,53.252,7.666,108.038,7.666,108.038c52.123,91.175,149.994,211.639,149.994,211.639
			c45.587,39.092,19.526,61.846,19.526,61.846L538.415,702l17.347-58.578c32.153-61.401,45.023-134.583,49.541-196.59
			C598.485,467.286,575.328,482.374,547.734,482.374z"/>
		<path fill="#FFFFFF" d="M531.274,436.907h16.46c21.704,0,40.101-12.949,40.101-28.32V230.312c0-15.33-18.396-28.32-40.101-28.32
			h-16.46c-21.705,0-40.061,12.95-40.061,28.32v116.712v61.563C491.214,423.917,509.569,436.907,531.274,436.907z"/>
		<path fill="#FFFFFF" d="M298.94,328.991h16.459c21.745,0,40.061-12.95,40.061-28.321V168.749v-46.313
			c0-15.33-18.315-28.32-40.061-28.32H298.94c-21.705,0-40.101,12.99-40.101,28.32V300.71
			C258.879,316.041,277.235,328.991,298.94,328.991z"/>
		<path fill="#FFFFFF" d="M415.127,375.304h16.46c21.704,0,40.061-12.95,40.061-28.321V230.312v-61.563
			c0-15.33-18.356-28.32-40.061-28.32h-16.46c-21.744,0-40.101,12.95-40.101,28.32V300.71v46.313
			C375.026,362.354,393.383,375.304,415.127,375.304z"/>
	</g>
</g>
</svg>
