<?xml version="1.0" encoding="utf-8"?>
<!-- Generator: Adobe Illustrator 16.0.0, SVG Export Plug-In . SVG Version: 6.00 Build 0)  -->
<!DOCTYPE svg PUBLIC "-//W3C//DTD SVG 1.1//EN" "http://www.w3.org/Graphics/SVG/1.1/DTD/svg11.dtd">
<svg version="1.1" id="Capa_1" xmlns="http://www.w3.org/2000/svg" xmlns:xlink="http://www.w3.org/1999/xlink" x="0px" y="0px"
	 width="612px" height="792px" viewBox="0 0 612 792" enable-background="new 0 0 612 792" xml:space="preserve">
<g>
	<g>
		<path fill="#FFFFFF" d="M441.112,275.129L263.277,473.108l-93.78-89.958c-8.336-7.989-21.535-7.641-29.523,0.695
			c-7.989,8.336-7.641,21.535,0.695,29.522l109.063,104.896c3.821,3.821,9.031,5.905,14.588,5.905c0.347,0,0.347,0,0.695,0
			c5.557-0.348,11.115-2.779,14.588-6.947l192.422-213.958c7.641-8.683,6.947-21.882-1.737-29.523
			C461.952,265.751,448.754,266.445,441.112,275.129z"/>
		<path fill="#FFFFFF" d="M306.001,90C137.197,90,0,227.197,0,396c0,168.804,137.197,306,306.001,306c168.804,0,306-137.196,306-306
			C612.001,227.197,474.805,90,306.001,90z M306.001,660.32C160.121,660.32,41.68,541.879,41.68,396
			c0-145.88,118.44-264.32,264.321-264.32c145.88,0,264.32,118.441,264.32,264.321C570.321,541.881,451.881,660.32,306.001,660.32z"
			/>
	</g>
</g>
</svg>
