<?xml version="1.0" encoding="utf-8"?>
<!-- Generator: Adobe Illustrator 16.0.0, SVG Export Plug-In . SVG Version: 6.00 Build 0)  -->
<!DOCTYPE svg PUBLIC "-//W3C//DTD SVG 1.1//EN" "http://www.w3.org/Graphics/SVG/1.1/DTD/svg11.dtd">
<svg version="1.1" id="Capa_1" xmlns="http://www.w3.org/2000/svg" xmlns:xlink="http://www.w3.org/1999/xlink" x="0px" y="0px"
	 width="2048px" height="2048px" viewBox="0 0 2048 2048" enable-background="new 0 0 2048 2048" xml:space="preserve">
<g>
	<g>
		<path fill="#FFFFFF" d="M1024,0C458.496,0,0,458.496,0,1024s458.496,1024,1024,1024s1024-458.496,1024-1024S1589.504,0,1024,0z
			 M1498.368,740.736l-490.496,749.695l-0.384,0.256l-7.168,11.904l-15.36,11.137l-3.968,2.688l-25.088,10.496l-8.704,2.048
			l-21.504,0.512l-14.977-2.56l-14.72-5.76l-12.288-4.864l-6.784-6.784l-3.328-2.048l-285.567-264.064
			c-36.353-33.663-38.528-90.367-4.992-126.592c33.536-36.224,90.24-38.528,126.592-4.992l206.72,191.232l432-660.352
			c27.137-41.345,82.688-52.992,124.032-25.984C1513.855,643.84,1525.504,699.392,1498.368,740.736z"/>
	</g>
</g>
</svg>
