<?xml version="1.0" encoding="utf-8"?>
<!-- Generator: Adobe Illustrator 16.0.0, SVG Export Plug-In . SVG Version: 6.00 Build 0)  -->
<!DOCTYPE svg PUBLIC "-//W3C//DTD SVG 1.1//EN" "http://www.w3.org/Graphics/SVG/1.1/DTD/svg11.dtd">
<svg version="1.1" id="Layer_1" xmlns="http://www.w3.org/2000/svg" xmlns:xlink="http://www.w3.org/1999/xlink" x="0px" y="0px"
	 width="2048px" height="2048px" viewBox="0 0 2048 2048" enable-background="new 0 0 2048 2048" xml:space="preserve">
<g>
	<g id="vynil_1_">
		<path fill="#FFFFFF" d="M1401.164,76.837C877.685-132.43,283.302,121.569,73.646,644.289
			c-209.72,522.78,44.805,1116.295,568.344,1325.562c523.539,209.332,1117.921-44.732,1327.58-567.451
			C2179.292,879.616,1924.701,286.23,1401.164,76.837z M689.474,1851.585C232.116,1668.697,8.996,1148.463,192.103,691.761
			C375.273,235.124,896.389,12.287,1353.806,195.234c457.356,182.819,680.481,703.119,497.37,1159.755
			C1667.942,1811.69,1146.89,2034.403,689.474,1851.585z"/>
		<path fill="#FFFFFF" d="M1069.155,905.042c-65.422-26.19-139.774,5.608-166.004,70.924
			c-26.231,65.315,5.618,139.487,70.971,165.678c65.421,26.186,139.837-5.606,166.003-70.864
			C1166.297,1005.469,1134.509,931.298,1069.155,905.042z M997.866,1082.574c-32.676-13.126-48.569-50.214-35.546-82.908
			c13.145-32.625,50.355-48.493,83.032-35.49c32.614,13.061,48.504,50.212,35.487,82.904
			C1067.746,1079.706,1030.543,1095.574,997.866,1082.574z"/>
		<path fill="#FFFFFF" d="M1163.932,668.503c-196.32-78.507-419.19,16.824-497.817,212.772
			c-78.629,196.013,16.846,418.53,213.103,497.038c196.32,78.51,419.189-16.756,497.817-212.772
			C1455.668,969.533,1360.314,746.947,1163.932,668.503z M926.769,1259.98c-130.711-52.19-194.406-200.919-142.134-331.358
			c52.334-130.442,201.171-194.1,331.816-141.911c130.773,52.252,194.471,200.981,142.258,331.424
			C1206.31,1248.572,1057.413,1312.296,926.769,1259.98z"/>
		<path fill="#FFFFFF" d="M1495.684,1212.887c6.509-16.315-1.463-34.854-17.807-41.354c-16.338-6.626-34.912,1.338-41.484,17.716
			v-0.068c-45.889,114.446-133.902,199.39-238.952,244.316c-16.085,6.877-23.681,25.619-16.724,41.735
			c6.956,16.248,25.659,23.705,41.869,16.823c0.636-0.257,0.895-0.761,1.336-0.956c119.547-51.613,219.485-148.279,271.631-278.215
			h0.131V1212.887z"/>
		<path fill="#FFFFFF" d="M1714.788,1266.161c-16.343-6.567-34.912,1.402-41.489,17.712
			c-72.056,179.696-210.296,313.196-375.467,383.802c-16.082,6.878-23.678,25.618-16.722,41.801
			c6.956,16.252,25.658,23.644,41.87,16.763c0.762-0.385,1.335-1.084,2.104-1.406c179.279-77.293,329.324-222.394,407.508-417.255
			C1739.106,1291.269,1731.127,1272.723,1714.788,1266.161z"/>
		<path fill="#FFFFFF" d="M1596.271,1218.814c-16.341-6.567-34.912,1.334-41.487,17.712
			c-58.843,147.072-171.876,256.229-307.116,314.028h0.127c-16.209,6.944-23.804,25.68-16.848,41.868
			c6.957,16.188,25.655,23.639,41.866,16.759c0.636-0.322,1.021-0.896,1.726-1.279c149.346-64.424,274.373-185.24,339.538-347.669
			C1620.584,1243.922,1612.607,1225.379,1596.271,1218.814z"/>
		<path fill="#FFFFFF" d="M862.624,571.453c-6.958-16.247-25.72-23.64-41.934-16.693c-0.574,0.193-0.892,0.7-1.338,0.891
			c-119.54,51.618-219.549,148.351-271.63,278.216h-0.063c-6.572,16.379,1.401,34.857,17.743,41.423
			c16.401,6.562,34.975-1.403,41.485-17.715h0.066C652.778,743.258,740.791,658.25,845.839,613.39
			C862.05,606.375,869.58,587.704,862.624,571.453z"/>
		<path fill="#FFFFFF" d="M762.104,337.143c-6.957-16.184-25.72-23.639-41.933-16.757c-0.765,0.319-1.339,1.018-1.98,1.336
			C538.85,399.08,388.865,544.117,310.681,738.978c-6.64,16.443,1.338,34.984,17.742,41.485c16.34,6.56,34.91-1.337,41.485-17.714
			c72.121-179.634,210.299-313.136,375.473-383.742C761.529,372,769.06,353.33,762.104,337.143z"/>
		<path fill="#FFFFFF" d="M795.611,496.07c16.146-6.883,23.74-25.553,16.783-41.804c-6.957-16.121-25.721-23.639-41.933-16.694
			c-0.637,0.256-1.02,0.892-1.659,1.146c-149.409,64.488-274.437,185.433-339.539,347.8c-6.638,16.377,1.405,34.855,17.678,41.482
			c16.34,6.5,34.909-1.334,41.487-17.713c58.907-147.071,172.001-256.294,307.114-314.027v-0.191H795.611L795.611,496.07z"/>
	</g>
</g>
</svg>
