<?xml version="1.0" encoding="utf-8"?>
<!-- Generator: Adobe Illustrator 16.0.0, SVG Export Plug-In . SVG Version: 6.00 Build 0)  -->
<!DOCTYPE svg PUBLIC "-//W3C//DTD SVG 1.1//EN" "http://www.w3.org/Graphics/SVG/1.1/DTD/svg11.dtd">
<svg version="1.1" id="Capa_1" xmlns="http://www.w3.org/2000/svg" xmlns:xlink="http://www.w3.org/1999/xlink" x="0px" y="0px"
	 width="612px" height="792px" viewBox="0 0 612 792" enable-background="new 0 0 612 792" xml:space="preserve">
<g>
	<g id="vynil_1_">
		<path fill="#FFFFFF" d="M419.695,112.007c-156.82-62.789-334.881,13.422-397.688,170.26
			c-62.827,156.857,13.422,334.937,170.26,397.726c156.838,62.809,334.899-13.422,397.708-170.26
			C652.802,352.875,576.533,174.834,419.695,112.007z M206.492,644.508C69.48,589.634,2.639,433.541,57.493,296.511
			C112.366,159.5,268.478,92.639,405.508,147.531c137.012,54.854,203.854,210.966,148.999,347.977
			C499.615,632.538,343.522,699.361,206.492,644.508z"/>
		<path fill="#FFFFFF" d="M320.234,360.504c-19.598-7.858-41.872,1.683-49.73,21.28c-7.858,19.598,1.683,41.853,21.261,49.711
			c19.598,7.857,41.891-1.683,49.73-21.262C349.335,390.637,339.813,368.382,320.234,360.504z M298.878,413.771
			c-9.789-3.938-14.55-15.066-10.649-24.875c3.938-9.789,15.085-14.55,24.874-10.649c9.771,3.919,14.531,15.066,10.631,24.875
			C319.813,412.911,308.667,417.672,298.878,413.771z"/>
		<path fill="#FFFFFF" d="M348.627,289.532c-58.812-23.555-125.578,5.048-149.133,63.841
			c-23.555,58.812,5.047,125.577,63.84,149.133c58.812,23.556,125.578-5.028,149.133-63.841
			C436.023,379.854,407.458,313.069,348.627,289.532z M277.579,467.001c-39.157-15.659-58.238-60.284-42.579-99.422
			c15.678-39.138,60.265-58.238,99.403-42.579c39.176,15.678,58.258,60.303,42.617,99.441
			C361.322,463.578,316.717,482.698,277.579,467.001z"/>
		<path fill="#FFFFFF" d="M448.011,452.871c1.95-4.895-0.439-10.458-5.334-12.408c-4.895-1.988-10.459,0.401-12.428,5.315v-0.02
			c-13.747,34.339-40.113,59.825-71.584,73.305c-4.818,2.064-7.094,7.687-5.01,12.523c2.084,4.875,7.687,7.112,12.543,5.048
			c0.191-0.077,0.268-0.229,0.401-0.287c35.812-15.487,65.752-44.491,81.373-83.477H448.011z"/>
		<path fill="#FFFFFF" d="M513.648,468.855c-4.895-1.97-10.458,0.421-12.428,5.315c-21.586,53.917-62.999,93.973-112.48,115.157
			c-4.818,2.064-7.094,7.687-5.01,12.542c2.084,4.876,7.687,7.094,12.543,5.029c0.229-0.115,0.401-0.325,0.631-0.421
			c53.707-23.192,98.657-66.728,122.079-125.195C520.934,476.389,518.543,470.824,513.648,468.855z"/>
		<path fill="#FFFFFF" d="M478.144,454.649c-4.895-1.97-10.458,0.401-12.428,5.315c-17.628,44.128-51.489,76.88-92.004,94.222h0.038
			c-4.856,2.084-7.131,7.705-5.047,12.562s7.686,7.093,12.542,5.028c0.191-0.096,0.306-0.268,0.517-0.383
			c44.74-19.33,82.195-55.58,101.716-104.316C485.428,462.183,483.038,456.619,478.144,454.649z"/>
		<path fill="#FFFFFF" d="M258.363,260.413c-2.084-4.875-7.705-7.093-12.562-5.009c-0.172,0.058-0.268,0.21-0.401,0.268
			c-35.811,15.487-65.771,44.511-81.373,83.477h-0.019c-1.969,4.914,0.42,10.458,5.315,12.428
			c4.914,1.969,10.478-0.421,12.428-5.315h0.02c13.728-34.3,40.094-59.806,71.564-73.266
			C258.191,270.891,260.447,265.289,258.363,260.413z"/>
		<path fill="#FFFFFF" d="M228.25,190.11c-2.084-4.856-7.705-7.093-12.562-5.028c-0.229,0.096-0.401,0.306-0.593,0.401
			c-53.726,23.211-98.657,66.728-122.079,125.195c-1.989,4.933,0.401,10.497,5.315,12.447c4.895,1.969,10.458-0.401,12.428-5.315
			c21.605-53.898,63-93.954,112.481-115.139C228.078,200.569,230.334,194.967,228.25,190.11z"/>
		<path fill="#FFFFFF" d="M238.288,237.795c4.837-2.065,7.112-7.667,5.028-12.543c-2.084-4.837-7.705-7.093-12.562-5.009
			c-0.191,0.077-0.306,0.268-0.497,0.344c-44.759,19.349-82.214,55.638-101.717,104.355c-1.988,4.914,0.421,10.458,5.296,12.447
			c4.895,1.95,10.458-0.401,12.428-5.315c17.647-44.128,51.527-76.899,92.003-94.222v-0.057H238.288z"/>
	</g>
</g>
</svg>
