<?xml version="1.0" encoding="utf-8"?>
<!-- Generator: Adobe Illustrator 16.0.0, SVG Export Plug-In . SVG Version: 6.00 Build 0)  -->
<!DOCTYPE svg PUBLIC "-//W3C//DTD SVG 1.1//EN" "http://www.w3.org/Graphics/SVG/1.1/DTD/svg11.dtd">
<svg version="1.1" id="Layer_1" xmlns="http://www.w3.org/2000/svg" xmlns:xlink="http://www.w3.org/1999/xlink" x="0px" y="0px"
	 width="2048px" height="2048px" viewBox="0 0 2048 2048" enable-background="new 0 0 2048 2048" xml:space="preserve">
<path fill="#231F20" d="M2022.738,852.969c22.49-19.752,30.914-50.986,21.416-79.343c-9.498-28.363-35.09-48.232-64.922-50.456
	l-594.646-44.387c-27.619-2.1-51.734-19.269-62.629-44.654L1085.789,86.556c-11.863-27.402-39.006-45.119-68.908-44.788
	c-29.835,0.276-56.639,18.397-67.968,46.071l-225.972,551.87c-10.438,25.604-34.295,43.25-61.836,45.8L67.333,740.877
	c-29.751,2.76-54.955,23.104-63.917,51.598c-8.955,28.498,0.071,59.624,22.829,78.941l455.008,385.493
	c21.094,17.925,30.512,46.005,24.459,72.955L374.9,1911.694c-6.543,29.171,4.975,59.411,29.357,76.788
	c24.389,17.312,56.71,18.394,82.178,2.62l507.136-313.688c23.511-14.534,53.152-14.818,76.988-0.664l512.867,304.188
	c25.668,15.226,58.058,13.611,82.035-4.172c23.986-17.782,35.035-48.304,27.888-77.318l-141.459-579.288
	c-6.601-26.88,2.286-55.172,23.038-73.411L2022.738,852.969z"/>
</svg>
