<?xml version="1.0" encoding="utf-8"?>
<!-- Generator: Adobe Illustrator 16.0.0, SVG Export Plug-In . SVG Version: 6.00 Build 0)  -->
<!DOCTYPE svg PUBLIC "-//W3C//DTD SVG 1.1//EN" "http://www.w3.org/Graphics/SVG/1.1/DTD/svg11.dtd">
<svg version="1.1" id="Capa_1" xmlns="http://www.w3.org/2000/svg" xmlns:xlink="http://www.w3.org/1999/xlink" x="0px" y="0px"
	 width="49.652px" height="49.652px" viewBox="0 0 49.652 49.652" enable-background="new 0 0 49.652 49.652" xml:space="preserve">
<g>
	<g>
		<g>
			<path fill="#BF4343" d="M21.5,28.94c-0.161-0.107-0.326-0.225-0.499-0.34c-0.503-0.154-1.037-0.234-1.584-0.241h-0.064
				c-2.516,0-4.72,1.521-4.72,3.257c0,1.89,1.891,3.367,4.301,3.367c3.179,0,4.79-1.1,4.79-3.258c0-0.204-0.024-0.416-0.075-0.63
				C23.432,30.258,22.663,29.735,21.5,28.94z"/>
			<path fill="#BF4343" d="M19.719,22.352c0.003,0,0.003,0,0.003,0c0.601,0,1.106-0.237,1.501-0.688
				c0.614-0.702,0.889-1.854,0.727-3.077c-0.285-2.186-1.848-4.006-3.479-4.053l-0.064-0.002c-0.577,0-1.092,0.238-1.483,0.686
				c-0.605,0.693-0.862,1.791-0.705,3.014c0.286,2.184,1.884,4.069,3.479,4.121H19.719L19.719,22.352z"/>
			<path fill="#BF4343" d="M24.826,0C11.137,0,0,11.136,0,24.826s11.139,24.826,24.826,24.826c13.688,0,24.826-11.138,24.826-24.826
				S38.516,0,24.826,0z M21.964,36.915c-0.938,0.271-1.951,0.408-3.018,0.408c-1.188,0-2.326-0.136-3.389-0.405
				c-2.059-0.519-3.577-1.503-4.287-2.771c-0.308-0.548-0.461-1.132-0.461-1.737c0-0.623,0.147-1.255,0.441-1.881
				c1.127-2.402,4.1-4.02,7.391-4.02c0.031,0,0.062,0,0.094,0c-0.269-0.471-0.396-0.959-0.396-1.472c0-0.255,0.034-0.515,0.104-0.78
				c-3.452-0.076-6.035-2.604-6.035-5.938c0-2.354,1.881-4.646,4.571-5.572c0.805-0.277,1.626-0.42,2.433-0.42h7.382
				c0.251,0,0.476,0.163,0.554,0.402c0.076,0.236-0.01,0.5-0.213,0.646l-1.649,1.195c-0.101,0.07-0.218,0.107-0.341,0.107H24.55
				c0.765,0.915,1.21,2.221,1.21,3.686c0,1.617-0.816,3.146-2.307,4.311c-1.148,0.896-1.195,1.145-1.195,1.654
				c0.016,0.281,0.815,1.198,1.699,1.823c2.061,1.456,2.825,2.885,2.825,5.269C26.781,33.913,24.89,36.065,21.964,36.915z
				 M38.635,24.253c0,0.32-0.261,0.58-0.578,0.58H33.86v4.197c0,0.32-0.261,0.58-0.578,0.58h-1.195c-0.32,0-0.582-0.26-0.582-0.58
				v-4.197h-4.19c-0.32,0-0.58-0.258-0.58-0.58V23.06c0-0.32,0.26-0.582,0.58-0.582h4.19v-4.193c0-0.321,0.262-0.58,0.582-0.58
				h1.195c0.317,0,0.578,0.259,0.578,0.58v4.193h4.194c0.317,0,0.578,0.26,0.578,0.58L38.635,24.253L38.635,24.253z"/>
		</g>
	</g>
</g>
</svg>
