<?xml version="1.0" encoding="utf-8"?>
<!-- Generator: Adobe Illustrator 16.0.0, SVG Export Plug-In . SVG Version: 6.00 Build 0)  -->
<!DOCTYPE svg PUBLIC "-//W3C//DTD SVG 1.1//EN" "http://www.w3.org/Graphics/SVG/1.1/DTD/svg11.dtd">
<svg version="1.1" id="Layer_1" xmlns="http://www.w3.org/2000/svg" xmlns:xlink="http://www.w3.org/1999/xlink" x="0px" y="0px"
	 width="32px" height="32px" viewBox="0 0 32 32" enable-background="new 0 0 32 32" xml:space="preserve">
<g>
	<path fill="#FFFFFF" d="M16,0C7.163,0,0,7.163,0,16s7.163,16,16,16s16-7.163,16-16S24.837,0,16,0z M16,31C7.716,31,1,24.284,1,16
		S7.716,1,16,1s15,6.716,15,15S24.284,31,16,31z"/>
	<path fill="#FFFFFF" d="M12,8h-1c-1.105,0-2,0.895-2,2v12c0,1.105,0.895,2,2,2h1c1.105,0,2-0.895,2-2V10C14,8.895,13.105,8,12,8z
		 M13,21.529C13,22.342,12.342,23,11.529,23H11.47C10.658,23,10,22.342,10,21.529V10.471C10,9.658,10.658,9,11.471,9h0.059
		C12.342,9,13,9.658,13,10.471V21.529z"/>
	<path fill="#FFFFFF" d="M21,8h-1c-1.105,0-2,0.895-2,2v12c0,1.105,0.895,2,2,2h1c1.105,0,2-0.895,2-2V10C23,8.895,22.105,8,21,8z
		 M22,21.529C22,22.342,21.342,23,20.529,23h-0.06C19.658,23,19,22.342,19,21.529V10.471C19,9.658,19.658,9,20.471,9h0.06
		C21.342,9,22,9.658,22,10.471V21.529z"/>
</g>
</svg>
