<?xml version="1.0" encoding="utf-8"?>
<!-- Generator: Adobe Illustrator 16.0.0, SVG Export Plug-In . SVG Version: 6.00 Build 0)  -->
<!DOCTYPE svg PUBLIC "-//W3C//DTD SVG 1.1//EN" "http://www.w3.org/Graphics/SVG/1.1/DTD/svg11.dtd">
<svg version="1.1" id="Layer_1" xmlns="http://www.w3.org/2000/svg" xmlns:xlink="http://www.w3.org/1999/xlink" x="0px" y="0px"
	 width="32px" height="32px" viewBox="0 0 32 32" enable-background="new 0 0 32 32" xml:space="preserve">
<path fill="#FFFFFF" d="M4,8v16l8-4v4l12-6v4c0,1.105,0.895,2,2,2s2-0.895,2-2v-6v-6c0-1.105-0.895-2-2-2s-2,0.895-2,2v4L12,8v4L4,8
	z M5,10l8,3.692V12.5V10l12,5.538V14.5V10c0-0.552,0.448-1,1-1s1,0.448,1,1v5.5v1V22c0,0.552-0.448,1-1,1s-1-0.448-1-1v-4.5v-1.038
	L13,22v-2.5v-1.191L5,22V10z"/>
</svg>
