<?xml version="1.0" encoding="utf-8"?>
<!-- Generator: Adobe Illustrator 16.0.0, SVG Export Plug-In . SVG Version: 6.00 Build 0)  -->
<!DOCTYPE svg PUBLIC "-//W3C//DTD SVG 1.1//EN" "http://www.w3.org/Graphics/SVG/1.1/DTD/svg11.dtd">
<svg version="1.1" id="Layer_1" xmlns="http://www.w3.org/2000/svg" xmlns:xlink="http://www.w3.org/1999/xlink" x="0px" y="0px"
	 width="32px" height="32px" viewBox="0 0 32 32" enable-background="new 0 0 32 32" xml:space="preserve">
<path fill="#FFFFFF" d="M20,12V8L8,14v-4c0-1.105-0.895-2-2-2s-2,0.895-2,2v6v6c0,1.105,0.895,2,2,2s2-0.895,2-2v-4l12,6v-4l8,4V8
	L20,12z M27,22l-8-3.691V19.5V22L7,16.462V17.5V22c0,0.552-0.448,1-1,1s-1-0.448-1-1v-5.5v-1V10c0-0.552,0.448-1,1-1s1,0.448,1,1
	v4.5v1.038L19,10v2.5v1.192L27,10V22z"/>
</svg>
