<?xml version="1.0" encoding="utf-8"?>
<!-- Generator: Adobe Illustrator 16.0.0, SVG Export Plug-In . SVG Version: 6.00 Build 0)  -->
<!DOCTYPE svg PUBLIC "-//W3C//DTD SVG 1.1//EN" "http://www.w3.org/Graphics/SVG/1.1/DTD/svg11.dtd">
<svg version="1.1" id="Capa_1" xmlns="http://www.w3.org/2000/svg" xmlns:xlink="http://www.w3.org/1999/xlink" x="0px" y="0px"
	 width="186.139px" height="186.141px" viewBox="0 0 186.139 186.141" enable-background="new 0 0 186.139 186.141"
	 xml:space="preserve">
<g>
	<path fill="#FFFFFF" d="M166.329,111.802c0-5.954-3.587-11.039-8.671-13.365c3.445-15.341,6.339-26.142,6.362-26.247
		c0.28-1.041,0.03-2.149-0.664-2.98c-0.693-0.815-1.734-1.227-2.824-1.133c-1.772,0.174-42.881,4.737-67.157,32.127
		C68.951,73.777,27.493,68.3,25.685,68.083c-1.078-0.151-2.162,0.28-2.874,1.103c-0.715,0.821-0.977,1.944-0.69,2.999
		c0.023,0.111,2.91,10.905,6.365,26.24c-5.082,2.326-8.674,7.404-8.674,13.365c0,8.002,6.438,14.48,14.387,14.683
		c1.757,9.62,3.212,18.669,4.231,26.73c0.165,1.229,0.999,2.265,2.171,2.686c0.344,0.121,33.819,11.959,48.911,29.143
		c0.655,0.73,1.56,1.109,2.47,1.109c0.312,0,0.578-0.238,0.877-0.329c0.063,0.023,0.096,0.104,0.152,0.114
		c0.377,0.152,0.771,0.215,1.166,0.215c0.922,0,1.823-0.379,2.469-1.109c15.083-17.184,48.556-29.021,48.908-29.143
		c1.169-0.414,2.01-1.449,2.18-2.686c1.035-8.239,2.484-17.269,4.228-26.73C159.892,126.282,166.329,119.815,166.329,111.802z
		 M26.373,111.802c0-4.535,3.678-8.201,8.198-8.201c4.527,0,8.199,3.678,8.199,8.201c0,4.524-3.681,8.19-8.199,8.19
		C30.05,119.993,26.373,116.327,26.373,111.802z M44.686,150.401c-1.022-7.69-2.408-16.209-4.056-25.209
		c5.108-2.326,8.705-7.422,8.705-13.391c0-8.014-6.451-14.505-14.422-14.681c-2.102-9.329-3.995-17.044-5.183-21.696
		c11.904,2.309,42.896,10.126,60.828,31.402c0.216,0.255,0.566,0.219,0.841,0.39l-0.476,70.025
		C76.042,162.927,51.737,153.051,44.686,150.401z M97.497,174.972l0.48-70.147c17.914-20.462,47.075-27.465,58.456-29.489
		c-1.176,4.649-3.094,12.397-5.193,21.774c-7.983,0.188-14.433,6.668-14.433,14.692c0,5.969,3.593,11.053,8.701,13.379
		c-1.638,8.871-3.014,17.379-4.049,25.221C134.775,152.911,112.476,161.868,97.497,174.972z M151.569,119.993
		c-4.53,0-8.195-3.679-8.195-8.19c0-4.535,3.684-8.201,8.195-8.201c4.53,0,8.195,3.678,8.195,8.201
		C159.764,116.327,156.086,119.993,151.569,119.993z M82.414,74.902c0.344,0,0.572-0.269,0.893-0.375
		c0.983,1.104,2.006,2.183,3.196,3.124c4.698,3.729,10.567,5.788,16.548,5.788c8.153,0,15.722-3.647,20.788-10.021
		c9.085-11.417,7.216-28.047-4.104-37.208C119.071,16.148,102.642,0,82.414,0C61.762,0,44.959,16.802,44.959,37.448
		C44.959,58.093,61.762,74.902,82.414,74.902z M118.699,69.334c-6.638,8.369-19.698,9.883-28.11,3.193
		c-8.637-6.884-10.065-19.517-3.193-28.153c3.807-4.801,9.512-7.544,15.655-7.544c4.566,0,8.865,1.51,12.458,4.366
		C124.13,48.08,125.574,60.706,118.699,69.334z M82.414,6.558c15.229,0,27.846,11.105,30.359,25.639
		c-3.087-1.221-6.361-1.934-9.735-1.934c-8.153,0-15.723,3.656-20.779,10.028c-6.473,8.116-7.294,18.854-3.212,27.702
		c-15.439-1.696-27.535-14.666-27.535-30.552C51.518,20.426,65.374,6.558,82.414,6.558z"/>
</g>
</svg>
