<?xml version="1.0" encoding="utf-8"?>
<!-- Generator: Adobe Illustrator 16.0.0, SVG Export Plug-In . SVG Version: 6.00 Build 0)  -->
<!DOCTYPE svg PUBLIC "-//W3C//DTD SVG 1.1//EN" "http://www.w3.org/Graphics/SVG/1.1/DTD/svg11.dtd">
<svg version="1.1" id="Capa_1" xmlns="http://www.w3.org/2000/svg" xmlns:xlink="http://www.w3.org/1999/xlink" x="0px" y="0px"
	 width="612px" height="792px" viewBox="0 0 612 792" enable-background="new 0 0 612 792" xml:space="preserve">
<g>
	<path fill="#BF4343" d="M306,424.434c-9.937,0-17.99-8.044-18-17.98l-0.319-298.435c-0.009-9.937,8.044-18.009,17.981-18.019
		c0.01,0,0.01,0,0.019,0c9.938,0,17.991,8.044,18,17.981L324,406.416c0.009,9.937-8.044,18.009-17.981,18.018
		C306.01,424.434,306.01,424.434,306,424.434z"/>
	<path fill="#BF4343" d="M306,702C159.628,702,40.546,582.919,40.546,436.547c0-115.857,74.072-217.453,184.312-252.816
		c9.488-3.056,19.603,2.185,22.631,11.644c3.038,9.459-2.176,19.594-11.643,22.631c-95.278,30.563-159.3,118.388-159.3,218.542
		C76.546,563.071,179.474,666,306,666c126.525,0,229.454-102.928,229.454-229.453c0-100.154-64.022-187.979-159.301-218.542
		c-9.469-3.037-14.681-13.171-11.644-22.631c3.028-9.469,13.162-14.69,22.632-11.644c110.24,35.363,184.312,136.96,184.312,252.816
		C571.453,582.919,452.371,702,306,702z"/>
</g>
</svg>
