<?xml version="1.0" encoding="utf-8"?>
<!-- Generator: Adobe Illustrator 16.0.0, SVG Export Plug-In . SVG Version: 6.00 Build 0)  -->
<!DOCTYPE svg PUBLIC "-//W3C//DTD SVG 1.1//EN" "http://www.w3.org/Graphics/SVG/1.1/DTD/svg11.dtd">
<svg version="1.1" id="Capa_1" xmlns="http://www.w3.org/2000/svg" xmlns:xlink="http://www.w3.org/1999/xlink" x="0px" y="0px"
	 width="612px" height="792px" viewBox="0 0 612 792" enable-background="new 0 0 612 792" xml:space="preserve">
<g>
	<path fill="#FFFFFF" d="M238.447,595.231c75.915,0,137.45-61.511,137.45-137.4c0-75.889-61.535-137.425-137.45-137.425
		c-75.84,0-137.4,61.56-137.4,137.425C101.021,533.721,162.606,595.231,238.447,595.231z M206.063,396.715
		c0-2.614,1.48-5.08,3.848-6.289c2.343-1.233,5.155-1.061,7.35,0.468l89.134,61.116c1.899,1.308,3.107,3.527,3.107,5.87
		s-1.208,4.562-3.107,5.87l-89.134,61.066c-1.233,0.839-2.59,1.258-4.094,1.258c-1.085,0-2.244-0.296-3.255-0.839
		c-2.393-1.232-3.848-3.625-3.848-6.313V396.715z M595.155,90H152.174c-8.978,0-16.204,7.227-16.204,16.179v49.5h-49.5
		c-8.903,0-16.179,7.227-16.179,16.155v54.901H16.968c-8.953,0-16.179,7.202-16.179,16.155v442.957
		c0,8.928,7.227,16.154,16.179,16.154h442.957c8.903,0,16.18-7.227,16.18-16.154v-54.877h53.322c8.854,0,16.13-7.251,16.13-16.179
		v-49.5h49.524c8.903,0,16.13-7.227,16.13-16.154V106.179C611.26,97.227,604.033,90,595.155,90z M443.746,669.642H33.172V259.068
		h410.574V669.642L443.746,669.642z M513.198,598.636h-37.094V242.889c0-8.953-7.276-16.155-16.18-16.155H102.649v-38.672h410.549
		V598.636z M578.853,532.956h-33.296V171.858c0.024-8.904-7.251-16.155-16.13-16.155H168.328v-33.345h410.549L578.853,532.956
		L578.853,532.956z"/>
</g>
</svg>
