<?xml version="1.0" encoding="utf-8"?>
<!-- Generator: Adobe Illustrator 16.0.0, SVG Export Plug-In . SVG Version: 6.00 Build 0)  -->
<!DOCTYPE svg PUBLIC "-//W3C//DTD SVG 1.1//EN" "http://www.w3.org/Graphics/SVG/1.1/DTD/svg11.dtd">
<svg version="1.1" id="Capa_1" xmlns="http://www.w3.org/2000/svg" xmlns:xlink="http://www.w3.org/1999/xlink" x="0px" y="0px"
	 width="341.387px" height="341.387px" viewBox="0 0 341.387 341.387" enable-background="new 0 0 341.387 341.387"
	 xml:space="preserve">
<g>
	<path fill="#FFFFFF" d="M269.081,209.189c-22.713,0-42.777,11.521-54.681,29.021l-83.611-46.31
		c4.839-9.185,7.609-19.61,7.609-30.69c0-10.775-2.645-20.926-7.238-29.922l63.472-27.617
		c11.938,17.215,31.816,28.523,54.308,28.523c36.444,0,66.098-29.652,66.098-66.098C315.036,29.65,285.386,0,248.938,0
		c-36.442,0-66.092,29.65-66.092,66.096c0,7.488,1.31,14.658,3.611,21.373l-65.929,28.688C108.456,103.247,91.33,95.112,72.3,95.112
		c-36.443,0-66.093,29.652-66.093,66.098c0,36.446,29.649,66.099,66.093,66.099c18.812,0,35.772-7.938,47.821-20.601l86.27,47.776
		c-2.18,6.551-3.404,13.531-3.404,20.803c0,36.445,29.65,66.1,66.095,66.1c36.445,0,66.098-29.652,66.098-66.1
		C335.179,238.842,305.526,209.189,269.081,209.189z M248.938,18.116c26.455,0,47.979,21.523,47.979,47.979
		c0,26.459-21.522,47.98-47.979,47.98c-26.455,0-47.979-21.521-47.979-47.98C200.962,39.639,222.482,18.116,248.938,18.116z
		 M72.301,209.189c-26.454,0-47.977-21.522-47.977-47.979c0-26.459,21.522-47.98,47.977-47.98c26.456,0,47.98,21.521,47.98,47.98
		C120.282,187.667,98.757,209.189,72.301,209.189z M269.081,323.268c-26.455,0-47.978-21.522-47.978-47.979
		c0-26.459,21.521-47.979,47.978-47.979s47.979,21.521,47.979,47.979C317.062,301.744,295.536,323.268,269.081,323.268z"/>
</g>
</svg>
