<?xml version="1.0" encoding="utf-8"?>
<!-- Generator: Adobe Illustrator 16.0.0, SVG Export Plug-In . SVG Version: 6.00 Build 0)  -->
<!DOCTYPE svg PUBLIC "-//W3C//DTD SVG 1.1//EN" "http://www.w3.org/Graphics/SVG/1.1/DTD/svg11.dtd">
<svg version="1.1" id="Capa_1" xmlns="http://www.w3.org/2000/svg" xmlns:xlink="http://www.w3.org/1999/xlink" x="0px" y="0px"
	 width="49.652px" height="49.652px" viewBox="0 0 49.652 49.652" enable-background="new 0 0 49.652 49.652" xml:space="preserve">
<g>
	<g>
		<path fill="#9E9E9E" d="M24.826,0C11.137,0,0,11.136,0,24.826s11.139,24.826,24.826,24.826c13.688,0,24.826-11.138,24.826-24.826
			S38.516,0,24.826,0z M35.901,19.144c0.011,0.246,0.017,0.493,0.017,0.74c0,7.553-5.746,16.257-16.259,16.257
			c-3.227,0-6.229-0.943-8.759-2.565c0.447,0.053,0.9,0.08,1.363,0.08c2.678,0,5.141-0.914,7.097-2.446
			c-2.5-0.046-4.611-1.696-5.338-3.969c0.348,0.066,0.707,0.103,1.074,0.103c0.521,0,1.025-0.066,1.506-0.197
			c-2.614-0.524-4.583-2.833-4.583-5.604c0-0.022,0-0.049,0.001-0.071c0.77,0.428,1.649,0.686,2.587,0.715
			c-1.532-1.023-2.541-2.773-2.541-4.755c0-1.05,0.281-2.03,0.771-2.874c2.817,3.458,7.029,5.73,11.777,5.972
			c-0.098-0.419-0.146-0.854-0.146-1.303c0-3.155,2.559-5.716,5.714-5.716c1.644,0,3.127,0.694,4.171,1.806
			c1.303-0.256,2.521-0.73,3.63-1.389c-0.431,1.337-1.333,2.454-2.518,3.162c1.157-0.138,2.263-0.442,3.282-0.897
			C37.987,17.334,37.018,18.341,35.901,19.144z"/>
	</g>
</g>
</svg>
